<svg width="100" height="100" viewBox="0 0 100 100" fill="none" xmlns="http://www.w3.org/2000/svg">
<g clip-path="url(#clip0)">
<path d="M95.3904 96.0938H91.1066V33.8937C91.1066 30.9986 88.7512 28.6434 85.8562 28.6434H76.2812C73.3861 28.6434 71.0308 30.9988 71.0308 33.8937V96.0938H60.1535V62.0752C60.1535 59.1801 57.7982 56.8248 54.9031 56.8248H45.3281C42.433 56.8248 40.0777 59.1803 40.0777 62.0752V96.0938H29.2004V78.4758C29.2004 75.5807 26.8449 73.2254 23.95 73.2254H14.3748C11.4797 73.2254 9.1244 75.5809 9.1244 78.4758V96.0938H4.60956C3.53085 96.0938 2.65643 96.9682 2.65643 98.0469C2.65643 99.1256 3.53085 100 4.60956 100H95.3904C96.4691 100 97.3435 99.1256 97.3435 98.0469C97.3435 96.9682 96.4691 96.0938 95.3904 96.0938ZM25.2937 96.0938H13.0305V78.4758C13.0305 77.7346 13.6334 77.1316 14.3746 77.1316H23.9496C24.6908 77.1316 25.2937 77.7346 25.2937 78.4758V96.0938ZM56.247 96.0938H43.9838V62.0752C43.9838 61.334 44.5867 60.7311 45.3279 60.7311H54.9029C55.6439 60.7311 56.247 61.334 56.247 62.0752V96.0938ZM87.2004 96.0938H74.9371V33.8937C74.9371 33.1525 75.54 32.5496 76.2812 32.5496H85.8562C86.5974 32.5496 87.2004 33.1525 87.2004 33.8937V96.0938Z" fill="white"/>
<path d="M91.102 2.05391C91.1293 1.5209 90.9418 0.978906 90.5348 0.571875C90.1277 0.164844 89.5858 -0.0228516 89.0527 0.0046875C89.0213 0.00332031 88.9902 0 88.9582 0H77.1418C76.0631 0 75.1887 0.874414 75.1887 1.95312C75.1887 3.03184 76.0631 3.90625 77.1418 3.90625H84.4381L65.1301 23.2145L57.8488 15.9332C57.4826 15.567 56.9857 15.3611 56.4678 15.3611C55.9498 15.3611 55.4529 15.567 55.0867 15.9332L19.9756 51.0445C19.2129 51.8072 19.2129 53.0439 19.9756 53.8068C20.357 54.1879 20.8568 54.3785 21.3566 54.3785C21.8564 54.3785 22.3564 54.1879 22.7377 53.8064L56.4678 20.0762L63.749 27.3574C64.5117 28.1201 65.7484 28.1201 66.5113 27.3574L87.2004 6.66855V13.2721C87.2004 14.3508 88.0748 15.2252 89.1535 15.2252C90.2322 15.2252 91.1067 14.3508 91.1067 13.2721V2.14844C91.1067 2.1166 91.1033 2.08555 91.102 2.05391Z" fill="white"/>
<path d="M14.7734 61.1934C15.8521 61.1934 16.7266 60.3189 16.7266 59.2402C16.7266 58.1616 15.8521 57.2871 14.7734 57.2871C13.6948 57.2871 12.8203 58.1616 12.8203 59.2402C12.8203 60.3189 13.6948 61.1934 14.7734 61.1934Z" fill="white"/>
</g>
<defs>
<clipPath id="clip0">
<rect width="100" height="100" fill="white"/>
</clipPath>
</defs>
</svg>
