<?xml version="1.0" standalone="no"?>
<svg version="1.0" xmlns="http://www.w3.org/2000/svg"
 width="1280.000000pt" height="820.000000pt" viewBox="0 0 1280.000000 820.000000"
 preserveAspectRatio="xMidYMid meet">
<g transform="translate(0.000000,820.000000) scale(0.100000,-0.100000)"
fill="#fff" stroke="none">
<path d="M3139 8122 c-226 -60 -363 -263 -346 -512 26 -361 278 -665 633 -762
72 -19 109 -22 406 -26 l327 -4 29 -76 c16 -43 50 -134 76 -203 l48 -126 -311
-620 -310 -621 -108 40 c-137 51 -373 111 -528 134 -168 26 -601 26 -760 1
-606 -97 -1100 -345 -1515 -759 -402 -402 -651 -886 -751 -1463 -31 -174 -38
-560 -14 -746 77 -618 336 -1149 769 -1581 359 -358 823 -610 1313 -714 135
-29 165 -29 219 -5 96 44 137 172 86 267 -16 30 -79 83 -105 88 -419 87 -714
215 -1014 442 -422 319 -731 803 -847 1324 -41 188 -51 283 -51 500 1 281 37
502 125 755 42 123 165 370 240 485 288 438 715 768 1205 929 256 84 450 115
720 115 203 0 336 -15 520 -59 98 -23 301 -88 313 -100 6 -6 -87 -203 -100
-211 -3 -2 -46 9 -95 25 -233 76 -457 107 -717 98 -246 -8 -449 -49 -665 -133
-471 -184 -854 -531 -1084 -981 -149 -292 -218 -586 -218 -922 0 -201 18 -348
62 -520 244 -948 1155 -1601 2127 -1523 280 23 504 83 747 202 577 281 983
805 1110 1431 14 70 25 138 25 152 0 56 3 57 131 57 140 0 129 18 99 -165 -38
-237 -95 -414 -201 -634 -114 -237 -253 -434 -433 -615 -328 -330 -721 -540
-1199 -641 -123 -26 -177 -86 -177 -195 0 -100 70 -178 168 -187 98 -10 443
87 671 188 379 168 734 439 986 751 195 241 364 551 461 844 l57 171 64 -48
c75 -57 203 -121 291 -145 l62 -17 0 -182 0 -182 -108 -5 c-116 -6 -149 -17
-193 -65 -40 -42 -50 -69 -50 -126 0 -62 10 -92 45 -134 53 -62 67 -64 511
-61 399 3 400 3 438 26 98 62 118 211 39 295 -46 48 -78 59 -194 65 l-108 5 0
182 0 182 48 13 c81 23 195 75 262 120 235 159 379 405 405 695 14 162 -36
374 -124 523 l-48 80 1101 1220 c723 800 1104 1215 1108 1207 8 -13 198 -522
198 -529 0 -2 -46 -29 -102 -59 -432 -228 -759 -523 -1021 -922 -446 -679
-555 -1556 -288 -2327 142 -411 362 -754 678 -1058 424 -409 953 -660 1543
-732 136 -16 485 -16 620 0 588 73 1116 323 1536 725 453 434 732 990 809
1607 18 145 20 474 4 618 -25 239 -99 520 -195 751 -328 782 -1042 1382 -1864
1565 -237 53 -317 61 -600 61 -283 0 -372 -9 -596 -61 -60 -14 -120 -27 -134
-30 -25 -5 -29 4 -324 798 -165 442 -308 824 -318 851 l-18 47 529 0 529 0 30
-53 c81 -144 222 -232 405 -252 91 -10 126 -64 74 -113 -22 -20 -33 -22 -168
-22 -86 0 -171 -6 -212 -15 -174 -37 -321 -173 -371 -344 -21 -71 -21 -211 0
-282 52 -176 198 -314 371 -349 38 -8 132 -10 287 -7 236 5 288 12 422 60 235
85 466 293 583 525 83 164 117 333 108 531 -10 236 -85 435 -235 621 -195 245
-496 390 -810 390 -120 0 -198 -18 -272 -63 -58 -35 -149 -127 -181 -184 l-30
-53 -677 0 c-435 0 -690 -4 -714 -10 -78 -22 -138 -102 -138 -183 0 -37 78
-263 189 -550 l11 -27 -1907 2 -1907 3 -58 155 -58 155 28 20 c60 45 94 80
137 145 75 113 30 104 565 110 l465 5 67 33 c105 51 164 139 174 255 11 118
-60 268 -190 404 -113 119 -229 190 -391 235 l-80 23 -1055 2 c-973 2 -1060 1
-1121 -15z m2224 -409 c37 -18 92 -56 123 -85 l56 -53 -393 -6 c-367 -5 -398
-7 -450 -26 -132 -49 -210 -108 -287 -216 -89 -125 -60 -118 -507 -115 l-380
3 -78 37 c-152 73 -255 218 -265 373 -4 69 -3 75 21 99 l26 26 1033 -2 1033
-3 68 -32z m5035 -449 c253 -51 463 -251 529 -504 22 -86 22 -243 -1 -330 -64
-239 -251 -428 -491 -495 -40 -11 -117 -19 -230 -22 -194 -6 -230 2 -265 59
-24 39 -25 69 -5 108 26 50 54 57 245 63 150 4 184 8 235 27 208 79 329 283
295 498 -32 198 -187 349 -387 374 -103 14 -132 25 -154 62 -50 82 10 175 114
176 21 0 73 -7 115 -16z m-1772 -1091 c35 -83 120 19 -1149 -1387 l-1168
-1294 -72 33 c-112 51 -178 66 -328 72 l-135 5 -469 1257 c-258 691 -477 1277
-487 1304 l-18 47 1905 0 1905 0 16 -37z m-3666 -1497 c242 -649 440 -1185
439 -1190 -1 -16 -131 -108 -139 -99 -4 4 -17 44 -29 88 -33 117 -104 293
-177 435 -206 407 -540 780 -912 1020 -56 36 -100 68 -99 71 1 4 103 212 227
463 223 454 224 456 237 423 7 -17 211 -563 453 -1211z m5480 289 c253 -38
478 -108 696 -215 460 -227 823 -591 1049 -1053 111 -228 172 -424 212 -677
24 -158 24 -490 0 -648 -75 -485 -287 -914 -623 -1262 -193 -200 -389 -342
-639 -465 -215 -106 -401 -167 -650 -211 -141 -26 -565 -26 -710 -1 -239 42
-435 106 -650 211 -237 117 -394 227 -583 410 -203 196 -343 388 -467 641
-508 1029 -169 2268 796 2913 109 72 269 156 279 146 10 -10 80 -194 80 -209
0 -5 -30 -26 -68 -45 -155 -80 -340 -218 -476 -354 -314 -314 -513 -708 -582
-1151 -23 -148 -23 -440 0 -590 89 -582 403 -1080 886 -1407 718 -485 1676
-458 2375 67 327 246 572 588 705 985 66 194 64 288 -7 352 -75 68 -221 59
-281 -17 -12 -16 -34 -67 -48 -114 -81 -274 -198 -490 -366 -678 -239 -268
-547 -446 -913 -525 -85 -19 -132 -22 -320 -23 -194 0 -233 3 -329 23 -503
108 -920 424 -1150 871 -138 269 -194 525 -183 826 22 559 323 1064 807 1355
68 41 87 48 94 37 5 -7 95 -245 201 -528 l192 -514 -49 -53 c-54 -61 -111
-171 -127 -250 -26 -123 -1 -282 61 -391 69 -122 219 -232 356 -260 185 -38
377 16 506 143 141 140 195 338 146 530 -26 103 -69 177 -149 256 -92 90 -170
127 -340 157 l-43 8 -196 523 c-153 412 -192 526 -182 532 8 5 41 13 74 19
358 64 709 16 1031 -140 427 -207 739 -581 874 -1048 33 -114 58 -151 126
-182 22 -10 56 -19 76 -19 50 0 129 43 159 87 58 85 13 289 -124 570 -207 424
-527 741 -957 948 -422 203 -906 249 -1399 133 -11 -3 -90 187 -90 217 0 19
250 70 422 85 125 12 372 4 498 -15z m-6468 -388 c340 -231 638 -594 801 -977
86 -203 153 -453 173 -642 l6 -68 -121 0 c-138 0 -122 -15 -141 125 -33 246
-152 562 -295 782 -162 249 -324 414 -609 618 l-28 20 53 107 c30 61 57 104
63 101 6 -4 50 -33 98 -66z m-1037 -242 c121 -20 295 -68 295 -81 0 -2 -113
-230 -251 -506 l-252 -503 -76 -2 c-146 -2 -260 -52 -366 -158 -82 -82 -118
-144 -145 -251 -35 -137 -20 -269 47 -397 169 -323 616 -388 873 -127 41 41
77 91 96 128 l29 62 568 0 c312 0 567 -2 567 -4 0 -29 -48 -238 -71 -309 -43
-136 -157 -357 -239 -467 -254 -339 -596 -559 -1015 -652 -87 -19 -129 -22
-325 -22 -195 0 -238 3 -323 22 -354 79 -639 238 -880 492 -308 323 -471 755
-454 1195 33 830 660 1501 1492 1595 103 11 315 4 430 -15z m797 -366 c203
-166 384 -416 483 -668 38 -96 88 -279 98 -363 l7 -48 -569 0 -569 0 -6 24
c-3 14 -27 55 -52 93 l-46 68 251 503 252 504 30 -20 c17 -11 72 -53 121 -93z
m2300 -778 c83 -29 145 -68 208 -132 157 -160 193 -393 92 -599 -33 -68 -149
-186 -219 -223 l-53 -28 0 266 c0 292 -2 306 -59 361 -86 84 -235 63 -296 -40
-25 -43 -25 -43 -25 -315 l0 -272 -58 31 c-75 40 -172 136 -211 209 -160 302
7 672 342 757 69 18 206 11 279 -15z m-3293 -346 c126 -65 124 -238 -3 -296
-51 -23 -74 -23 -127 -3 -109 44 -134 190 -47 271 46 43 124 56 177 28z m7479
-12 c69 -51 91 -135 56 -209 -33 -70 -114 -106 -186 -85 -144 43 -164 221 -34
303 40 25 125 20 164 -9z"/>
</g>
</svg>
