<svg width="125" height="81" viewBox="0 0 125 81" fill="none" xmlns="http://www.w3.org/2000/svg">
<path d="M21.4872 79.6837C22.4838 79.8595 23.4335 79.1969 23.6103 78.2015C23.7875 77.2059 23.1237 76.2552 22.1281 76.0785C11.4283 74.1764 3.66214 64.8941 3.66214 54.0075C3.66214 41.6461 13.7186 31.5896 26.08 31.5896C29.0283 31.5896 31.8452 32.1628 34.426 33.2019L33.3086 35.4388C31.0659 34.5625 28.6294 34.0762 26.08 34.0762C15.09 34.0762 6.14897 43.0172 6.14897 54.0075C6.14897 64.9976 15.09 73.9386 26.08 73.9386C36.4524 73.9386 44.9957 65.9732 45.9235 55.8386H48.4208C47.6061 65.9204 40.1263 74.284 30.032 76.0785C29.0364 76.2555 28.3725 77.2059 28.5498 78.2015C28.7075 79.089 29.4795 79.7123 30.3503 79.7123C30.4568 79.7123 30.5647 79.703 30.6728 79.6837C40.9303 77.8602 48.8649 70.2078 51.3442 60.4875C52.4872 61.5415 53.9084 62.2976 55.4838 62.6318V66.3738H53.8798C52.8683 66.3738 52.0487 67.1934 52.0487 68.2049C52.0487 69.2164 52.8683 70.0359 53.8798 70.0359H60.75C61.7615 70.0359 62.5811 69.2164 62.5811 68.2049C62.5811 67.1934 61.7615 66.3738 60.75 66.3738H59.1462V62.6318C63.1318 61.7864 66.1319 58.2412 66.1319 54.0073C66.1319 52.0341 65.4802 50.2104 64.3811 48.7399L86.0395 24.7512L88.1037 30.2783C79.1066 34.3958 72.8399 43.4833 72.8399 54.0073C72.8399 68.3877 84.5395 80.0873 98.92 80.0873C113.3 80.0873 125 68.3877 125 54.0073C125 39.6268 113.3 27.9272 98.92 27.9272C96.3552 27.9272 93.8765 28.3012 91.5334 28.9944L85.2651 12.2093H95.7559C96.4795 13.9711 98.212 15.2159 100.231 15.2159C100.623 15.2159 100.942 15.5348 100.942 15.9266C100.942 16.3185 100.623 16.6373 100.231 16.6373H98.0025C95.335 16.6373 93.1648 18.8078 93.1648 21.475C93.1648 24.1423 95.3352 26.3125 98.0025 26.3125H100.231C105.958 26.3125 110.618 21.6532 110.618 15.9264C110.618 10.1995 105.958 5.54032 100.231 5.54032C98.212 5.54032 96.4795 6.7852 95.7559 8.54669H82.6266C81.3747 8.54669 80.4591 9.80305 80.9113 11.0184L82.7685 15.9913H45.4259L44.2601 12.8697C45.0028 12.4088 45.6349 11.7672 46.0807 10.983C46.3739 10.4666 46.9252 10.1456 47.5194 10.1456H55.3056C57.4604 10.1456 58.9284 7.95977 58.1167 5.96537L58.1164 5.96513C56.8654 2.89503 53.9147 0.911133 50.5993 0.911133H31.8406C29.3389 0.911133 27.3037 2.94655 27.3037 5.44828C27.3037 9.98347 30.9934 13.6732 35.5288 13.6732H40.651L42.161 17.7167L36.0672 29.9158C32.9895 28.635 29.6162 27.9265 26.0803 27.9265C11.6996 27.9275 0 39.627 0 54.0075C0 66.6722 9.03669 77.4706 21.4872 79.6837ZM98.92 31.5896C111.281 31.5896 121.338 41.6461 121.338 54.0075C121.338 66.3689 111.281 76.4254 98.92 76.4254C86.5585 76.4254 76.5021 66.3689 76.5021 54.0075C76.5021 45.0526 81.7804 37.3084 89.3889 33.7197L90.2619 36.0574C83.5966 39.2855 78.9891 46.1183 78.9891 54.0075C78.9891 64.9976 87.9301 73.9386 98.9202 73.9386C108.153 73.9386 116.117 67.6768 118.288 58.7109C118.526 57.7282 117.922 56.7385 116.939 56.5005C115.956 56.2617 114.967 56.8664 114.729 57.8491C112.957 65.166 106.457 70.2762 98.9202 70.2762C89.9497 70.2762 82.6513 62.9778 82.6513 54.0073C82.6513 47.6881 86.2751 42.203 91.5515 39.5101L95.4573 49.9687C94.3193 50.9457 93.5962 52.3932 93.5962 54.0075C93.5962 56.9431 95.9844 59.3315 98.9202 59.3315C101.856 59.3315 104.244 56.9433 104.244 54.0075C104.244 51.0717 101.856 48.6835 98.9202 48.6835C98.909 48.6835 98.898 48.6842 98.887 48.6842L94.9805 38.2232C96.2427 37.908 97.5618 37.7381 98.9204 37.7381C106.457 37.7381 112.958 42.8485 114.729 50.1654C114.967 51.1479 115.956 51.7519 116.94 51.5141C117.923 51.276 118.526 50.2865 118.288 49.3036C116.118 40.3375 108.153 34.0757 98.9204 34.0757C97.1116 34.0757 95.3604 34.3223 93.6934 34.7759L92.8186 32.4331C94.7586 31.884 96.8054 31.5896 98.92 31.5896ZM98.92 52.3459C99.8365 52.3459 100.582 53.0915 100.582 54.0077C100.582 54.924 99.8365 55.6696 98.92 55.6696C98.0037 55.6696 97.2581 54.924 97.2581 54.0077C97.2581 53.0915 98.0037 52.3459 98.92 52.3459ZM37.7002 34.8426C43.6771 38.48 47.8263 44.8338 48.4227 52.1767H45.9235C45.3402 45.8063 41.7484 40.2955 36.583 37.0789L37.7002 34.8426ZM31.0796 52.1764C30.8286 51.4936 30.4404 50.8766 29.9504 50.3573L34.9383 40.3721C38.9109 42.962 41.6873 47.2367 42.2432 52.1764H31.0796ZM26.08 52.3459C26.9963 52.3459 27.7419 53.0915 27.7419 54.0077C27.7419 54.924 26.9963 55.6696 26.08 55.6696C25.1635 55.6696 24.4179 54.924 24.4179 54.0077C24.4179 53.0915 25.1635 52.3459 26.08 52.3459ZM26.08 70.2764C17.1095 70.2764 9.81111 62.978 9.81111 54.0075C9.81111 45.0367 17.1095 37.7383 26.08 37.7383C28.0417 37.7383 29.9233 38.0875 31.6663 38.7266L26.6753 48.7177C26.4797 48.6957 26.2812 48.6835 26.08 48.6835C23.1445 48.6835 20.7558 51.0717 20.7558 54.0075C20.7558 56.9433 23.1442 59.3315 26.08 59.3315C28.3725 59.3315 30.3313 57.875 31.0796 55.8386H42.2432C41.3299 63.95 34.4314 70.2764 26.08 70.2764ZM59.1462 58.8203V54.0075C59.1462 52.996 58.3266 52.1764 57.3151 52.1764C56.3037 52.1764 55.4841 52.996 55.4841 54.0075V58.8203C53.5441 58.0796 52.1603 56.2045 52.1603 54.0075C52.1603 51.1652 54.4728 48.8529 57.3151 48.8529C60.1575 48.8529 62.4697 51.1654 62.4697 54.0075C62.4697 56.2045 61.0859 58.0796 59.1462 58.8203ZM100.231 9.20319C103.939 9.20319 106.955 12.2193 106.955 15.9271C106.955 19.6349 103.939 22.6511 100.231 22.6511H98.0025C97.3543 22.6511 96.8269 22.1237 96.8269 21.4757C96.8269 20.8276 97.3543 20.3002 98.0025 20.3002H100.231C102.642 20.3002 104.604 18.3385 104.604 15.9274C104.604 13.5162 102.642 11.5545 100.231 11.5545C99.5831 11.5545 99.0557 11.0272 99.0557 10.379C99.0557 9.73054 99.5831 9.20319 100.231 9.20319ZM84.1359 19.6542L84.5959 20.8857L61.6299 46.3229C60.3535 45.6034 58.882 45.1908 57.3154 45.1908C56.9892 45.1908 56.6677 45.2098 56.3505 45.2447L46.7938 19.6544H84.1359V19.6542ZM30.9656 5.44925C30.9656 4.96658 31.3579 4.57425 31.8403 4.57425H50.599C52.0851 4.57425 53.4377 5.30057 54.2575 6.48442H47.5192C45.6105 6.48442 43.8392 7.51543 42.8963 9.17463C42.6029 9.69123 42.0514 10.0123 41.4571 10.0123H35.5284C33.0127 10.012 30.9656 7.96514 30.9656 5.44925ZM43.9122 22.4072L52.8715 46.3973C52.3222 46.7194 51.8105 47.098 51.3451 47.527C49.6073 40.7559 45.211 35.0401 39.3409 31.5591L43.9122 22.4072Z" fill="white"/>
</svg>
