<svg width="130" height="130" viewBox="0 0 130 130" fill="none" xmlns="http://www.w3.org/2000/svg">
<g clip-path="url(#clip0)">
<path d="M47.5757 125.205C46.9092 125.205 46.2545 125.477 45.7824 125.95C45.3103 126.423 45.0386 127.079 45.0386 127.748C45.0386 128.416 45.3103 129.072 45.7824 129.545C46.2545 130.018 46.9092 130.29 47.5757 130.29C48.2432 130.29 48.8978 130.018 49.3699 129.545C49.842 129.072 50.1137 128.416 50.1137 127.748C50.1137 127.079 49.842 126.423 49.3699 125.95C48.8978 125.477 48.2432 125.205 47.5757 125.205Z" fill="white"/>
<path d="M127.209 53.5976C126.542 53.5976 125.887 53.8699 125.415 54.3429C124.943 54.8159 124.672 55.4718 124.672 56.1406C124.672 56.8114 124.943 57.4643 125.415 57.9373C125.887 58.4104 126.542 58.6827 127.209 58.6827C127.877 58.6827 128.531 58.4104 129.002 57.9373C129.474 57.4643 129.746 56.8114 129.746 56.1406C129.746 55.4718 129.474 54.8159 129.002 54.3429C128.531 53.8699 127.877 53.5976 127.209 53.5976Z" fill="white"/>
<path d="M107.669 32.9671C104.615 29.9083 99.6483 29.9093 96.5955 32.9671L95.2556 34.3096L70.7149 9.72098C68.6638 7.66588 65.9363 6.53399 63.0362 6.53399C60.1361 6.53399 57.4086 7.66588 55.3576 9.72098L29.113 36.0159L17.6822 24.5628C16.3353 23.2133 14.5441 22.47 12.6388 22.47C10.7325 22.47 8.94128 23.2133 7.59438 24.5628L0.58022 31.5907C-0.41061 32.5835 -0.41061 34.1934 0.58022 35.1861C1.57105 36.1789 3.1778 36.1789 4.16863 35.1861L11.1828 28.1583C11.9852 27.3543 13.2924 27.3543 14.0948 28.1583L25.5255 39.6114L0.488972 64.6969C-0.501858 65.6897 -0.501858 67.2986 0.488972 68.2923C0.984883 68.7882 1.63353 69.0367 2.28318 69.0367C2.93282 69.0367 3.58246 68.7882 4.07738 68.2923L58.946 13.3164C60.038 12.2213 61.491 11.6181 63.0362 11.6181C64.5815 11.6181 66.0335 12.2213 67.1265 13.3164L91.6672 37.9051L72.5776 57.032L65.4513 50.7047C69.5475 49.3959 72.523 45.5471 72.523 41.0146C72.523 35.4077 67.9696 30.8464 62.3737 30.8464C56.7778 30.8464 52.2244 35.4077 52.2244 41.0146C52.2244 41.1398 52.2293 41.264 52.2343 41.3882C48.5368 40.779 44.6082 41.896 41.7626 44.7471L24.7747 61.7683C24.7688 61.7742 24.7648 61.7802 24.7589 61.7862C24.6924 61.8547 24.6289 61.9263 24.5694 62.0028C24.5625 62.0118 24.5545 62.0207 24.5476 62.0286C24.5456 62.0326 24.5426 62.0356 24.5407 62.0386C23.4913 63.4368 22.8585 65.0884 22.6621 66.8703H16.1528C14.7514 66.8703 13.6157 68.0081 13.6157 69.4123V71.9563C13.6157 76.5396 17.338 80.2692 21.9133 80.2692H26.6463L25.8072 83.8964C24.9096 83.7901 23.9961 83.7334 23.0698 83.7334C10.2594 83.7334 -0.162655 94.1759 -0.162655 107.011C-0.162655 114.367 3.26111 120.936 8.59414 125.205H2.37443C0.972981 125.205 -0.162655 126.344 -0.162655 127.747C-0.162655 129.151 0.972981 130.289 2.37443 130.289H23.0698C34.0721 130.289 43.3129 122.587 45.7022 112.28C46.1663 112.791 46.8328 113.113 47.5767 113.113H61.3333C62.6445 117.948 65.4761 122.161 69.2788 125.205H57.6506C56.2492 125.205 55.1136 126.344 55.1136 127.747C55.1136 129.151 56.2492 130.289 57.6506 130.289H83.7534C96.5638 130.289 106.986 119.848 106.986 107.011C106.986 94.1759 96.5638 83.7334 83.7534 83.7334C82.4541 83.7334 81.1796 83.8427 79.9379 84.0494L79.8734 83.8189C78.711 79.6818 78.1218 75.4047 78.1218 71.1067V65.641H82.595C83.9766 65.641 85.1003 66.7669 85.1003 68.1512C85.1003 69.5345 83.9766 70.6615 82.595 70.6615C81.1935 70.6615 80.0579 71.7993 80.0579 73.2035C80.0579 74.6067 81.1935 75.7455 82.595 75.7455C86.7745 75.7455 90.1745 72.3389 90.1745 68.1512C90.1745 63.9635 86.7745 60.5559 82.595 60.5559H76.5468L76.3822 60.4098L100.184 36.5625C101.257 35.4863 103.006 35.4863 104.081 36.5625L118.86 51.3705C119.851 52.3633 121.458 52.3633 122.448 51.3705C123.439 50.3778 123.439 48.7679 122.448 47.7751L107.669 32.9671ZM49.3898 99.7151L45.717 83.6728C45.5593 82.9841 45.1229 82.3928 44.513 82.039L31.0817 74.2688C29.4789 73.3416 28.2263 71.5042 27.8137 69.4749C27.6004 68.4305 27.6252 67.4377 27.8752 66.5652L41.0743 70.2163L48.6062 77.7629C50.4649 79.6252 51.6987 81.9764 52.1758 84.5652L54.6097 99.7151H49.3898ZM29.597 90.0398C35.6332 92.3781 40.1192 97.8577 41.0466 104.47H26.2615L29.597 90.0398ZM52.1946 74.1675L45.9828 67.9445L53.9908 59.9199L73.1171 73.8017C73.1409 74.2638 73.1727 74.725 73.2094 75.1851H53.1359C52.8363 74.8353 52.5219 74.4964 52.1946 74.1675ZM62.3737 35.9305C65.1716 35.9305 67.4479 38.2111 67.4479 41.0155C67.4479 43.8189 65.1716 46.0996 62.3737 46.0996C59.5758 46.0996 57.2985 43.8189 57.2985 41.0155C57.2985 38.2111 59.5758 35.9305 62.3737 35.9305ZM45.3511 48.3435C48.0607 45.6276 52.4704 45.6276 55.18 48.3426L55.4448 48.6079C55.4805 48.6437 55.5182 48.6794 55.5559 48.7132L73.0467 64.2427V67.4725L55.2157 54.5307C54.7684 54.2067 54.2467 54.0477 53.728 54.0477C53.0744 54.0477 52.4237 54.3002 51.9328 54.7921L41.6456 65.1004L39.3605 64.4683L31.4437 62.2781L45.3511 48.3435ZM18.6909 71.9563L23.2354 71.9553C23.6183 73.1121 24.1598 74.2032 24.8342 75.1851H21.9133C20.136 75.1851 18.6909 73.7371 18.6909 71.9563ZM31.7899 80.5494L41.0178 85.8889L43.1938 95.3902C40.4326 90.6093 36.024 86.8995 30.7514 85.0432L31.7899 80.5494ZM23.0698 125.205C13.0573 125.205 4.91151 117.044 4.91151 107.012C4.91151 96.9803 13.0573 88.8185 23.0698 88.8185C23.6034 88.8185 24.131 88.8473 24.6527 88.892L20.5972 106.439C20.4226 107.194 20.6021 107.987 21.0832 108.594C21.5642 109.202 22.2952 109.554 23.0688 109.554H41.0466C39.8078 118.387 32.2203 125.205 23.0698 125.205ZM50.1138 108.03V104.799H55.5192C55.8336 104.799 56.1401 104.829 56.4396 104.882C56.7659 105.06 57.1319 105.166 57.5158 105.187C58.822 105.713 59.8773 106.739 60.4406 108.03H50.1138ZM83.7534 88.8185C93.7659 88.8185 101.912 96.9803 101.912 107.012C101.912 117.043 93.7659 125.205 83.7534 125.205C74.9788 125.205 67.6383 118.935 65.9581 110.633C65.9581 110.612 65.9611 110.592 65.9611 110.571V110.176C65.9611 109.244 65.8371 108.341 65.608 107.48C65.6031 107.324 65.5961 107.168 65.5961 107.011C65.5961 99.5859 70.0613 93.1891 76.4407 90.3648L81.3115 107.701C81.626 108.822 82.6446 109.554 83.7524 109.554C83.9795 109.554 84.2116 109.524 84.4407 109.459C85.7896 109.078 86.5761 107.674 86.1963 106.323L81.3254 88.9854C82.1199 88.8791 82.9302 88.8185 83.7534 88.8185ZM61.2033 101.407C60.7898 101.137 60.3563 100.896 59.9051 100.686L57.1815 83.7294C57.1785 83.7115 57.1756 83.6937 57.1726 83.6758C56.9584 82.5011 56.6301 81.3623 56.1986 80.2701H73.861C74.1565 81.9277 74.5324 83.5724 74.9887 85.1972L75.0541 85.4298C68.2274 88.2014 63.0045 94.1351 61.2033 101.407Z" fill="white"/>
<path d="M98.8836 25.8915L121.472 25.9034C126.035 25.9034 129.746 22.1838 129.746 17.6134C129.746 13.0421 126.035 9.32248 121.472 9.32248C121.365 9.32248 121.259 9.32447 121.153 9.32845C119.562 3.98896 114.609 0.127202 108.827 0.127202C105.436 0.127202 102.236 1.43698 99.8169 3.81704C97.8869 5.71513 96.6263 8.12301 96.1631 10.7416C93.1866 11.8576 91.078 14.7464 91.078 18.0696C91.078 22.3825 94.5801 25.8915 98.8836 25.8915ZM98.6843 15.3417C99.9925 15.2483 101.014 14.1701 101.04 12.8563C101.123 8.64076 104.616 5.21129 108.827 5.21129C112.931 5.21129 116.345 8.42313 116.599 12.5234C116.65 13.3552 117.105 14.1094 117.818 14.5407C118.53 14.972 119.408 15.0267 120.167 14.6858C120.58 14.501 121.019 14.4066 121.472 14.4066C123.236 14.4066 124.672 15.8455 124.672 17.6124C124.672 19.3804 123.236 20.8183 121.473 20.8183L98.8856 20.8064C98.8846 20.8064 98.8846 20.8064 98.8846 20.8064C97.3781 20.8064 96.1532 19.5791 96.1532 18.0696C96.1522 16.6415 97.265 15.4431 98.6843 15.3417Z" fill="white"/>
</g>
<defs>
<clipPath id="clip0">
<rect width="130" height="130" fill="white"/>
</clipPath>
</defs>
</svg>
