<?xml version="1.0" encoding="iso-8859-1"?>
<!-- Generator: Adobe Illustrator 19.0.0, SVG Export Plug-In . SVG Version: 6.00 Build 0)  -->
<svg version="1.1" id="Capa_1" xmlns="http://www.w3.org/2000/svg" xmlns:xlink="http://www.w3.org/1999/xlink" x="0px" y="0px"
	 viewBox="0 0 496 496" style="enable-background:new 0 0 496 496;" xml:space="preserve">
<g>
	<g>
		<g>
			<path d="M447.82,390.192c-5.376-32.232-27.976-58.68-58.976-69.016l-68.84-22.944V288h-16v14.704l-0.408,1.232
				C295.604,327.896,273.268,344,248.004,344c-25.264,0-47.6-16.104-55.584-40.064l-0.416-1.24V288h-16v10.232l-68.832,22.944
				c-31,10.336-53.6,36.784-58.976,69.016L30.556,496h434.888L447.82,390.192z M104.764,480H49.452l3.872-23.272l53.104,6.64
				L104.764,480z M240.004,480h-119.16l7.12-71.2l-15.92-1.592l-4.024,40.24l-52.064-6.504l8.016-48.104
				c4.4-26.384,22.888-48.024,48.256-56.48l33.408-11.136c14.056,31.704,42.464,55.68,76.52,63.736l3.688-15.568
				c-28.688-6.784-52.696-26.76-64.952-53.248l18.256-6.088c10.472,25.224,33.832,42.576,60.856,45.472V480z M383.964,407.192
				l-15.92,1.592l7.12,71.2h-119.16V359.52c27.024-2.896,50.384-20.24,60.864-45.464l18.248,6.08
				c-12.256,26.488-36.256,46.464-64.952,53.248l3.688,15.568c34.056-8.056,62.464-32.032,76.52-63.736l33.408,11.136
				c25.368,8.456,43.856,30.096,48.256,56.472l8.016,48.104l-52.064,6.504L383.964,407.192z M391.244,480l-1.664-16.632l53.104-6.64
				L446.556,480H391.244z" fill="white"/>
			<path d="M147.54,215.552c4.08,14.04,11.616,26.912,22.24,37.536l31.192,31.2c7.552,7.552,17.6,11.712,28.288,11.712h37.488
				c10.688,0,20.736-4.16,28.288-11.712l31.192-31.2c10.624-10.624,18.152-23.504,22.24-37.536
				c19.936-2.256,35.536-19.024,35.536-39.552c0-4.672-0.888-9.264-2.464-13.608c1.528-3.16,2.464-6.656,2.464-10.392v-16
				c0-74.992-61.008-136-136-136s-136,61.008-136,136v16c0,3.736,0.936,7.232,2.464,10.392c-1.576,4.344-2.464,8.936-2.464,13.608
				C112.004,196.528,127.604,213.296,147.54,215.552z M314.916,241.776l-31.192,31.2c-4.536,4.528-10.56,7.024-16.976,7.024H229.26
				c-6.416,0-12.448-2.496-16.976-7.024l-31.192-31.2c-9.04-9.048-15.312-20.096-18.544-32.136c6.208,3.984,13.544,6.36,21.456,6.36
				h16c12.52,0,24.488-5.984,32-16l12-16h8l12,16c7.512,10.016,19.48,16,32,16h16c7.912,0,15.248-2.376,21.464-6.36
				C330.236,221.672,323.964,232.728,314.916,241.776z M336.004,176c0,13.232-10.768,24-24,24h-16c-7.512,0-14.688-3.592-19.2-9.6
				l-16.8-22.4h-24l-16.8,22.4c-4.512,6.008-11.688,9.6-19.2,9.6h-16c-13.232,0-24-10.768-24-24v-12.688l9.936-9.936
				c6.048-6.048,14.088-9.376,22.632-9.376h110.856c8.544,0,16.584,3.328,22.632,9.368l9.944,9.944V176z M351.628,198.64
				c0.224-2.568,0.376-5.16,0.376-7.776V176h8c2.752,0,5.352-0.56,7.816-1.416c0.024,0.48,0.184,0.936,0.184,1.416
				C368.004,186.552,361.108,195.44,351.628,198.64z M248.004,16c8.168,0,16.136,0.832,23.848,2.392
				c-0.784,12.44-7.416,22.544-14.504,33.168c-3.16,4.736-6.464,9.728-9.344,15.128c-2.88-5.4-6.184-10.392-9.344-15.128
				c-7.088-10.624-13.72-20.728-14.504-33.168C231.868,16.832,239.836,16,248.004,16z M128.004,136
				c0-17.76,3.984-34.576,10.936-49.752l0.784,0.784C155.828,103.136,177.228,112,200.004,112h8V93.576l-1.344-2.016
				c-0.152-0.216-14.656-22.224-14.656-43.56h-16c0,19.488,9.256,38.488,14.248,47.328c-14.8-2.072-28.472-8.856-39.216-19.608
				l-4.12-4.12c14.36-22.464,35.96-39.792,61.528-48.76c1.904,15.08,9.816,26.96,16.904,37.6
				c7.536,11.304,14.656,21.984,14.656,35.56h16c0-13.576,7.12-24.256,14.656-35.56c7.096-10.64,15-22.512,16.904-37.6
				c25.56,8.968,47.16,26.296,61.528,48.76l-4.12,4.12c-10.752,10.752-24.424,17.536-39.216,19.608
				c4.992-8.84,14.248-27.84,14.248-47.328h-16c0,21.208-14.512,43.344-14.664,43.568l-1.336,2.024V112h8
				c22.776,0,44.176-8.864,60.28-24.976l0.784-0.784c6.952,15.184,10.936,32,10.936,49.76v16c0,4.408-3.584,8-8,8h-4.688
				l-17.936-17.944C328.3,132.992,316.244,128,303.436,128H192.572c-12.816,0-24.864,4.992-33.944,14.056L140.692,160h-4.688
				c-4.416,0-8-3.592-8-8V136z M128.188,174.584c2.464,0.856,5.064,1.416,7.816,1.416h8v14.864c0,2.616,0.152,5.208,0.376,7.784
				c-9.48-3.208-16.376-12.096-16.376-22.648C128.004,175.52,128.164,175.064,128.188,174.584z" fill="white"/>
		</g>
	</g>
</g>
<g>
</g>
<g>
</g>
<g>
</g>
<g>
</g>
<g>
</g>
<g>
</g>
<g>
</g>
<g>
</g>
<g>
</g>
<g>
</g>
<g>
</g>
<g>
</g>
<g>
</g>
<g>
</g>
<g>
</g>
</svg>
