<svg width="145" height="101" viewBox="0 0 145 101" fill="none" xmlns="http://www.w3.org/2000/svg">
<path d="M59.0249 40.926V50.5C59.0249 51.673 59.9758 52.624 61.1489 52.624C62.3219 52.624 63.2729 51.673 63.2729 50.5V45.8135H70.3759V55.0406C70.3759 56.2136 71.3269 57.1646 72.4999 57.1646C73.673 57.1646 74.624 56.2136 74.624 55.0406V45.8135H81.727V50.5C81.727 51.673 82.678 52.624 83.851 52.624C85.024 52.624 85.975 51.673 85.975 50.5V40.926C88.6114 40.0371 90.5153 37.5409 90.5153 34.6086V14.1766C90.5153 10.5018 87.5256 7.51231 83.851 7.51231H81.1776C80.2218 3.60807 76.6947 0.701843 72.5002 0.701843C68.3057 0.701843 64.7787 3.60807 63.8229 7.51231H61.1494C57.4746 7.51231 54.4851 10.5021 54.4851 14.1766V34.6086C54.4845 37.5412 56.3885 40.0373 59.0249 40.926ZM72.4999 4.94989C75.0842 4.94989 77.1864 7.05211 77.1864 9.63633C77.1864 12.2206 75.0842 14.3231 72.4999 14.3231C69.9157 14.3231 67.8135 12.2206 67.8135 9.63633C67.8135 7.05211 69.9157 4.94989 72.4999 4.94989ZM58.7326 14.1769C58.7326 12.8445 59.8167 11.7606 61.1489 11.7606H63.8223C64.7781 15.6649 68.3051 18.5714 72.4997 18.5714C76.6942 18.5714 80.2212 15.6649 81.177 11.7606H83.8504C85.1829 11.7606 86.2667 12.8447 86.2667 14.1769V34.6089C86.2667 35.9414 85.1826 37.0252 83.8504 37.0252C82.6774 37.0252 81.7264 37.9762 81.7264 39.1492V41.5655H63.2726V39.1492C63.2726 37.9762 62.3216 37.0252 61.1486 37.0252C59.8161 37.0252 58.7323 35.9411 58.7323 34.6089V14.1769H58.7326Z" fill="white"/>
<path d="M108.969 40.926V50.5C108.969 51.673 109.92 52.624 111.093 52.624C112.266 52.624 113.217 51.673 113.217 50.5V45.8135H120.32V55.0406C120.32 56.2136 121.271 57.1646 122.444 57.1646C123.617 57.1646 124.568 56.2136 124.568 55.0406V45.8135H131.671V50.5C131.671 51.673 132.622 52.624 133.795 52.624C134.968 52.624 135.919 51.673 135.919 50.5V40.926C138.556 40.0371 140.46 37.5409 140.46 34.6086V14.1766C140.46 10.5018 137.47 7.51231 133.795 7.51231H131.122C130.166 3.60807 126.639 0.701843 122.445 0.701843C118.25 0.701843 114.723 3.60807 113.767 7.51231H111.094C107.419 7.51231 104.429 10.5021 104.429 14.1766V34.6086C104.429 37.5412 106.333 40.0373 108.969 40.926ZM122.444 4.94989C125.029 4.94989 127.131 7.05211 127.131 9.63633C127.131 12.2206 125.029 14.3231 122.444 14.3231C119.86 14.3231 117.758 12.2206 117.758 9.63633C117.758 7.05211 119.86 4.94989 122.444 4.94989ZM108.677 14.1769C108.677 12.8445 109.761 11.7606 111.094 11.7606H113.767C114.723 15.6649 118.25 18.5714 122.444 18.5714C126.639 18.5714 130.166 15.6649 131.122 11.7606H133.795C135.128 11.7606 136.211 12.8447 136.211 14.1769V34.6089C136.211 35.9414 135.127 37.0252 133.795 37.0252C132.622 37.0252 131.671 37.9762 131.671 39.1492V41.5655H113.217V39.1492C113.217 37.9762 112.266 37.0252 111.093 37.0252C109.761 37.0252 108.677 35.9411 108.677 34.6089V14.1769H108.677Z" fill="white"/>
<path d="M9.08064 40.926V50.5C9.08064 51.673 10.0316 52.624 11.2047 52.624C12.3777 52.624 13.3287 51.673 13.3287 50.5V45.8135H20.4317V55.0406C20.4317 56.2136 21.3827 57.1646 22.5557 57.1646C23.7288 57.1646 24.6798 56.2136 24.6798 55.0406V45.8135H31.7828V50.5C31.7828 51.673 32.7338 52.624 33.9068 52.624C35.0798 52.624 36.0308 51.673 36.0308 50.5V40.926C38.6677 40.0373 40.5714 37.5412 40.5714 34.6086V14.1766C40.5714 10.5018 37.5816 7.51231 33.9068 7.51231H31.2334C30.2775 3.60807 26.7505 0.701843 22.556 0.701843C18.3615 0.701843 14.8345 3.60807 13.8787 7.51231H11.2052C7.53039 7.51231 4.54089 10.5021 4.54089 14.1766V34.6086C4.54033 37.5412 6.4443 40.0373 9.08064 40.926ZM22.5557 4.94989C25.14 4.94989 27.2422 7.05211 27.2422 9.63633C27.2422 12.2206 25.14 14.3231 22.5557 14.3231C19.9715 14.3231 17.8693 12.2206 17.8693 9.63633C17.8693 7.05211 19.9715 4.94989 22.5557 4.94989ZM8.78837 14.1769C8.78837 12.8445 9.87248 11.7606 11.2047 11.7606H13.8781C14.8339 15.6649 18.3609 18.5714 22.5554 18.5714C26.75 18.5714 30.277 15.6649 31.2328 11.7606H33.9062C35.2387 11.7606 36.3228 12.8447 36.3228 14.1769V34.6089C36.3228 35.9414 35.2387 37.0252 33.9062 37.0252C32.7332 37.0252 31.7822 37.9762 31.7822 39.1492V41.5655H13.3287V39.1492C13.3287 37.9762 12.3777 37.0252 11.2047 37.0252C9.87219 37.0252 8.78837 35.9411 8.78837 34.6089V14.1769Z" fill="white"/>
<path d="M142.876 96.0501H124.568V86.6769H133.795C134.968 86.6769 135.919 85.7259 135.919 84.5529C135.919 83.3799 134.968 82.4289 133.795 82.4289H133.649V59.0134C133.649 57.8403 132.698 56.8893 131.525 56.8893C130.352 56.8893 129.401 57.8403 129.401 59.0134V82.4289H124.569V64.1212C124.569 62.9482 123.618 61.9972 122.445 61.9972C121.272 61.9972 120.321 62.9482 120.321 64.1212V73.3483H115.488V59.0134C115.488 57.8403 114.537 56.8893 113.364 56.8893C112.191 56.8893 111.24 57.8403 111.24 59.0134V73.3483H111.094C109.921 73.3483 108.97 74.2993 108.97 75.4723C108.97 76.6453 109.921 77.5963 111.094 77.5963H120.321V96.0504H74.624V86.6772H83.8511C85.0241 86.6772 85.9751 85.7262 85.9751 84.5532C85.9751 83.3802 85.0241 82.4292 83.8511 82.4292H83.7049V59.0137C83.7049 57.8406 82.7539 56.8896 81.5809 56.8896C80.4079 56.8896 79.4569 57.8406 79.4569 59.0137V82.4292H74.624V64.1215C74.624 62.9485 73.673 61.9975 72.5 61.9975C71.327 61.9975 70.376 62.9485 70.376 64.1215V73.3485H65.5434V59.0137C65.5434 57.8406 64.5924 56.8896 63.4194 56.8896C62.2463 56.8896 61.2954 57.8406 61.2954 59.0137V73.3485H61.1492C59.9762 73.3485 59.0252 74.2995 59.0252 75.4726C59.0252 76.6456 59.9762 77.5966 61.1492 77.5966H70.376V96.0507H24.6797V86.6775H33.9068C35.0798 86.6775 36.0308 85.7265 36.0308 84.5535C36.0308 83.3804 35.0798 82.4294 33.9068 82.4294H33.7606V59.0139C33.7606 57.8409 32.8096 56.8899 31.6366 56.8899C30.4636 56.8899 29.5126 57.8409 29.5126 59.0139V82.4294H24.6797V64.1218C24.6797 62.9488 23.7287 61.9978 22.5557 61.9978C21.3827 61.9978 20.4317 62.9488 20.4317 64.1218V73.3488H15.5991V59.0139C15.5991 57.8409 14.6481 56.8899 13.4751 56.8899C12.3021 56.8899 11.3511 57.8409 11.3511 59.0139V73.3488H11.2049C10.0319 73.3488 9.08091 74.2998 9.08091 75.4728C9.08091 76.6459 10.0319 77.5969 11.2049 77.5969H20.432V96.051H2.12402C0.950996 96.051 0 97.002 0 98.175C0 99.348 0.950996 100.299 2.12402 100.299H142.876C144.049 100.299 145 99.348 145 98.175C145 97.002 144.049 96.0501 142.876 96.0501Z" fill="white"/>
</svg>
