<svg height="512" viewBox="0 0 60 60" width="512" xmlns="http://www.w3.org/2000/svg"><g id="Page-1" fill="none" fill-rule="evenodd"><g id="031---Road-Destination" fill="#fff" fill-rule="nonzero"><path id="Shape" d="m4.4 34.67c-.1810063.5161842.08631582 1.082016.6 1.27.10583747.0384365.21740649.0587218.33.06.44547355.0247539.85345417-.2485931 1-.67.70197228-1.9812646 2.56813207-3.3119524 4.67-3.33.5522847 0 1-.4477153 1-1s-.4477153-1-1-1c-2.96746983.0003565-5.61225649 1.8717434-6.6 4.67z"/><path id="Shape" d="m6.29 38.67c-.11789764-.337616-.40695554-.5866884-.75828838-.653394s-.71156481.0590896-.945.33c-.2334352.2709103-.30460926.645778-.18671162.983394.98774351 2.7982566 3.63253017 4.6696435 6.6 4.67.5522847 0 1-.4477153 1-1s-.4477153-1-1-1c-2.11656573-.0012131-4.00306728-1.3349817-4.71-3.33z"/><path id="Shape" d="m49 44c2.1165657.0012131 4.0030673 1.3349817 4.71 3.33.141.4033622.5227115.6725692.95.67.1125935-.0012782.2241625-.0215635.33-.06.517658-.1839144.7900268-.7509772.61-1.27-.9877435-2.7982566-3.6325302-4.6696435-6.6-4.67-.5522847 0-1 .4477153-1 1s.4477153 1 1 1z"/><path id="Shape" d="m55 50.06c-.2505974-.0895773-.5265642-.0755708-.7668044.0389187-.2402402.1144894-.4249352.320017-.5131956.5710813-.708157 1.9984792-2.5997651 3.3330247-4.72 3.33-.5522847 0-1 .4477153-1 1s.4477153 1 1 1c2.9674698-.0003565 5.6122565-1.8717434 6.6-4.67.1810063-.5161842-.0863158-1.082016-.6-1.27z"/><path id="Shape" d="m58 7h-3v-3c0-1.1045695-.8954305-2-2-2h-10v-1c0-.55228475-.4477153-1-1-1s-1 .44771525-1 1v21h-5c-1.6568542 0-3 1.3431458-3 3v1h-22c-6.07513225 0-11 4.9248678-11 11s4.92486775 11 11 11h38c.5522847 0 1 .4477153 1 1s-.4477153 1-1 1h-46c-1.65685425 0-3 1.3431458-3 3v4c0 1.6568542 1.34314575 3 3 3h46c6.0751322 0 11-4.9248678 11-11s-4.9248678-11-11-11h-38c-.5522847 0-1-.4477153-1-1s.4477153-1 1-1h46c1.6568542 0 3-1.3431458 3-3v-4c0-1.6568542-1.3431458-3-3-3h-6v-1c0-1.6568542-1.3431458-3-3-3h-5v-8h3v3c0 1.1045695.8954305 2 2 2h10c1.1045695 0 2-.8954305 2-2v-8c0-1.1045695-.8954305-2-2-2zm0 22v4c0 .5522847-.4477153 1-1 1h-46c-1.65685425 0-3 1.3431458-3 3s1.34314575 3 3 3h38c4.9705626.0000001 8.9999997 4.0294374 8.9999997 9s-4.0294371 8.9999999-8.9999997 9h-46c-.55228475 0-1-.4477153-1-1v-4c0-.5522847.44771525-1 1-1h46c1.6568542 0 3-1.3431458 3-3s-1.3431458-3-3-3h-38c-4.97056275 0-9-4.0294373-9-9s4.02943725-9 9-9h46c.5522847 0 1 .4477153 1 1zm-9-4v1h-14v-1c0-.5522847.4477153-1 1-1h12c.5522847 0 1 .4477153 1 1zm-6-21h10v8h-10zm7.88 10-2.88 2.05v-2.05zm7.12 3h-7.89l4.47-3.19c.2394946-.2055154.3900335-.4958404.42-.81v-4h3z"/><path id="Shape" d="m15 32h8c.5522847 0 1-.4477153 1-1s-.4477153-1-1-1h-8c-.5522847 0-1 .4477153-1 1s.4477153 1 1 1z"/><path id="Shape" d="m27 32h8c.5522847 0 1-.4477153 1-1s-.4477153-1-1-1h-8c-.5522847 0-1 .4477153-1 1s.4477153 1 1 1z"/><path id="Shape" d="m39 32h8c.5522847 0 1-.4477153 1-1s-.4477153-1-1-1h-8c-.5522847 0-1 .4477153-1 1s.4477153 1 1 1z"/><path id="Shape" d="m51 32h4c.5522847 0 1-.4477153 1-1s-.4477153-1-1-1h-4c-.5522847 0-1 .4477153-1 1s.4477153 1 1 1z"/><path id="Shape" d="m9 54h-4c-.55228475 0-1 .4477153-1 1s.44771525 1 1 1h4c.55228475 0 1-.4477153 1-1s-.44771525-1-1-1z"/><path id="Shape" d="m21 54h-8c-.5522847 0-1 .4477153-1 1s.4477153 1 1 1h8c.5522847 0 1-.4477153 1-1s-.4477153-1-1-1z"/><path id="Shape" d="m33 54h-8c-.5522847 0-1 .4477153-1 1s.4477153 1 1 1h8c.5522847 0 1-.4477153 1-1s-.4477153-1-1-1z"/><path id="Shape" d="m45 54h-8c-.5522847 0-1 .4477153-1 1s.4477153 1 1 1h8c.5522847 0 1-.4477153 1-1s-.4477153-1-1-1z"/><path id="Shape" d="m15 44h7c.5522847 0 1-.4477153 1-1s-.4477153-1-1-1h-7c-.5522847 0-1 .4477153-1 1s.4477153 1 1 1z"/><path id="Shape" d="m26 44h8c.5522847 0 1-.4477153 1-1s-.4477153-1-1-1h-8c-.5522847 0-1 .4477153-1 1s.4477153 1 1 1z"/><path id="Shape" d="m38 44h7c.5522847 0 1-.4477153 1-1s-.4477153-1-1-1h-7c-.5522847 0-1 .4477153-1 1s.4477153 1 1 1z"/></g></g></svg>