<?xml version="1.0" encoding="iso-8859-1"?>
<!-- Generator: Adobe Illustrator 19.0.0, SVG Export Plug-In . SVG Version: 6.00 Build 0)  -->
<svg version="1.1" id="Capa_1" xmlns="http://www.w3.org/2000/svg" xmlns:xlink="http://www.w3.org/1999/xlink" x="0px" y="0px"
	 viewBox="0 0 512 512" style="enable-background:new 0 0 512 512;" xml:space="preserve">
<g>
	<g>
		<path fill="white" d="M454.649,367.024c-40.297,0-80.075-6.226-118.384-18.499c1.644-9.013-2.406-18.501-10.783-23.337l-19.614-11.324
			c-5.159-2.979-11.169-3.77-16.923-2.229c-5.754,1.542-10.564,5.232-13.542,10.392l-0.482,0.835l-5.632-3.02l0.2-0.346
			c6.147-10.649,2.485-24.315-8.164-30.465l-19.614-11.324c-5.159-2.979-11.17-3.771-16.924-2.229
			c-5.486,1.47-10.094,4.91-13.094,9.697l-14.616-8.978c-3.839-2.357-8.782-1.857-12.071,1.222
			c-35.041,32.823-86.954,39.523-129.179,16.672l-8.498-4.599c-2.768-1.497-6.079-1.605-8.938-0.29
			c-2.859,1.314-4.932,3.898-5.597,6.975L3.529,431.713c-2.544,11.784-1.826,24.043,2.076,35.449
			C14.779,493.981,39.987,512,68.331,512h317.78c42.13,0,82.564-17.863,110.935-49.011c9.642-10.585,14.952-24.3,14.952-38.618
			C511.997,392.749,486.271,367.024,454.649,367.024z M292.723,332.026c0.394-0.682,0.977-0.96,1.397-1.072
			c0.42-0.111,1.064-0.164,1.747,0.23l19.614,11.324c1.1,0.635,1.478,2.046,0.843,3.146l-32.89,56.966
			c-0.635,1.1-2.046,1.476-3.146,0.844l-19.615-11.325c-0.682-0.395-0.959-0.978-1.072-1.397c-0.113-0.421-0.165-1.064,0.229-1.747
			L292.723,332.026z M228.564,295.871c0.394-0.683,0.978-0.96,1.398-1.072c0.17-0.046,0.377-0.082,0.608-0.082
			c0.34,0,0.732,0.077,1.138,0.312l19.614,11.324c1.1,0.635,1.478,2.046,0.843,3.146l-32.89,56.967
			c-0.394,0.683-0.978,0.96-1.398,1.072c-0.42,0.113-1.064,0.165-1.747-0.229l-19.614-11.324c-0.683-0.395-0.96-0.979-1.073-1.398
			c-0.113-0.42-0.164-1.064,0.23-1.747L228.564,295.871z M68.331,492c-19.793,0-37.396-12.583-43.802-31.31
			c-2.725-7.966-3.227-16.526-1.45-24.756l2.206-10.218h12.352c45.069,0,85.155,26.138,103.607,66.283H68.331z M482.259,449.523
			c-24.589,26.995-59.633,42.478-96.148,42.478h-223.21c-19.754-51.888-69.222-86.283-125.263-86.283h-8.034l19.939-92.343
			c9.218,4.666,18.8,8.146,28.547,10.5c0.083,0.111,0.157,0.225,0.245,0.333l76.891,94.252
			c20.353,24.949,50.492,39.258,82.689,39.258h34.657c5.523,0,10-4.478,10-10s-4.477-10-10-10h-34.657
			c-26.164,0-50.655-11.627-67.193-31.9l-63.876-78.299c30.824,0.473,61.46-9.899,86.065-30.406l8.741,5.371l-23.299,40.355
			c-2.979,5.159-3.77,11.17-2.229,16.925c1.542,5.754,5.232,10.563,10.392,13.542l19.614,11.324
			c3.436,1.984,7.25,2.998,11.115,2.998c1.938,0,3.887-0.255,5.809-0.77c5.754-1.542,10.563-5.232,13.542-10.392l22.686-39.292
			l5.632,3.02l-22.402,38.802c-2.979,5.159-3.77,11.169-2.228,16.923c1.542,5.755,5.232,10.564,10.391,13.542l19.615,11.325
			c3.503,2.022,7.332,2.983,11.112,2.983c7.714,0,15.226-4,19.353-11.146l26.549-45.984c20.995,6.896,42.418,12.051,64.127,15.453
			c-9.27,6.211-17.456,14.125-24.039,23.489c-7.476,10.633-17.632,19.207-29.371,24.795c-4.986,2.375-7.104,8.342-4.73,13.328
			c1.713,3.6,5.298,5.703,9.036,5.703c1.44,0,2.905-0.313,4.292-0.973c14.841-7.066,27.681-17.906,37.133-31.35
			c12.493-17.768,32.344-28.889,53.84-30.413c5.674,0.236,11.361,0.354,17.058,0.354c20.594,0,37.349,16.755,37.349,37.349
			C491.997,433.697,488.539,442.628,482.259,449.523z"/>
	</g>
</g>
<g>
	<g>
		<path fill="white" d="M306.823,437.706c-5.662,0.1-10.04,4.552-9.966,10.134c0.074,5.552,4.517,9.867,10.134,9.867c0.032,0,0.065,0,0.097,0
			c5.663-0.05,10.08-4.463,10.055-10.046C317.119,442.018,312.544,437.579,306.823,437.706z"/>
	</g>
</g>
<g>
	<g>
		<path fill="white" d="M508.467,157.001L479.203,21.464c-0.665-3.076-2.738-5.66-5.597-6.975c-2.859-1.314-6.17-1.207-8.938,0.291l-8.498,4.599
			c-42.227,22.85-94.138,16.15-129.179-16.671c-3.289-3.081-8.232-3.58-12.07-1.222l-14.615,8.979
			c-3.001-4.787-7.608-8.226-13.094-9.697c-5.755-1.54-11.764-0.75-16.923,2.229l-19.615,11.324
			c-5.159,2.979-8.849,7.788-10.391,13.542s-0.75,11.765,2.228,16.923l0.199,0.345l-5.632,3.02l-0.483-0.836
			c-2.979-5.159-7.788-8.849-13.542-10.391c-5.754-1.541-11.765-0.75-16.923,2.228l-19.615,11.324
			c-8.376,4.837-12.426,14.325-10.782,23.338C137.426,86.086,97.648,92.312,57.35,92.312c-31.623,0-57.349,25.727-57.349,57.349
			c0,14.318,5.31,28.033,14.952,38.619c28.371,31.146,68.805,49.01,110.935,49.01h20.446c5.523,0,10-4.477,10-10s-4.477-10-10-10
			h-20.446c-36.515,0-71.56-15.482-96.149-42.478c-6.28-6.894-9.738-15.826-9.738-25.151c0-20.594,16.755-37.349,37.349-37.349
			c5.694,0,11.378-0.118,17.05-0.354c21.5,1.521,41.354,12.642,53.848,30.412c17.89,25.445,47.141,40.636,78.244,40.636h67.59
			c32.198,0,62.337-14.309,82.689-39.258l76.891-94.252c0.088-0.108,0.162-0.223,0.245-0.334
			c9.747-2.354,19.329-5.833,28.547-10.499l19.939,92.343h-8.034c-56.041,0-105.508,34.396-125.262,86.283h-99.576
			c-5.523,0-10,4.477-10,10s4.477,10,10,10h194.145c28.344,0,53.552-18.019,62.726-44.837
			C510.294,181.044,511.012,168.786,508.467,157.001z M259.602,33.039c0.112-0.42,0.39-1.004,1.072-1.398l19.615-11.324
			c0.406-0.234,0.798-0.311,1.138-0.311c0.231,0,0.438,0.035,0.608,0.081c0.42,0.112,1.004,0.39,1.398,1.073l32.89,56.967
			c0.394,0.683,0.343,1.327,0.23,1.747c-0.112,0.42-0.39,1.003-1.073,1.398l-19.613,11.323c-0.682,0.394-1.327,0.344-1.747,0.23
			c-0.42-0.112-1.003-0.39-1.398-1.073l-32.89-56.967C259.438,34.103,259.49,33.459,259.602,33.039z M196.517,67.796l19.615-11.324
			c0.406-0.234,0.798-0.311,1.138-0.311c0.231,0,0.438,0.036,0.609,0.082c0.42,0.112,1.004,0.39,1.398,1.072l32.89,56.967
			c0.394,0.683,0.343,1.327,0.23,1.747c-0.112,0.42-0.39,1.004-1.073,1.398l-19.614,11.324c-1.1,0.633-2.51,0.257-3.145-0.843
			l-32.89-56.966C195.04,69.842,195.418,68.431,196.517,67.796z M341.273,131.106c-16.539,20.273-41.03,31.9-67.192,31.9h-67.59
			c-24.601,0-47.735-12.015-61.884-32.139c-6.583-9.363-14.77-17.277-24.04-23.489c21.709-3.402,43.133-8.556,64.128-15.453
			l26.549,45.983c4.126,7.146,11.638,11.146,19.352,11.146c3.781,0,7.61-0.961,11.113-2.983l19.614-11.324
			c10.65-6.149,14.312-19.816,8.163-30.466L247.081,65.48l5.635-3.02l22.685,39.292c2.979,5.16,7.788,8.85,13.542,10.392
			c1.921,0.515,3.871,0.77,5.808,0.77c3.865,0,7.679-1.014,11.115-2.998l19.614-11.324c5.16-2.979,8.85-7.788,10.392-13.542
			c1.542-5.754,0.75-11.764-2.229-16.923l-23.3-40.356l8.741-5.37c24.607,20.506,55.242,30.879,86.066,30.405L341.273,131.106z
			 M487.47,185.978c-6.406,18.728-24.009,31.311-43.802,31.311h-72.914c18.452-40.146,58.538-66.284,103.607-66.284h12.352
			l2.206,10.218C490.696,169.452,490.195,178.012,487.47,185.978z"/>
	</g>
</g>
<g>
	<g>
		<path fill="white" d="M210.74,220.213c-1.87-1.86-4.44-2.93-7.07-2.93s-5.21,1.07-7.07,2.93c-1.87,1.87-2.93,4.44-2.93,7.07
			c0,2.64,1.06,5.22,2.93,7.08c1.86,1.86,4.43,2.92,7.07,2.92c2.63,0,5.21-1.06,7.07-2.92c1.86-1.87,2.93-4.44,2.93-7.08
			C213.67,224.653,212.6,222.083,210.74,220.213z"/>
	</g>
</g>
<g>
</g>
<g>
</g>
<g>
</g>
<g>
</g>
<g>
</g>
<g>
</g>
<g>
</g>
<g>
</g>
<g>
</g>
<g>
</g>
<g>
</g>
<g>
</g>
<g>
</g>
<g>
</g>
<g>
</g>
</svg>
